<svg xmlns="http://www.w3.org/2000/svg" width="450.661" height="483.799" viewBox="0 0 450.661 483.799"><g transform="translate(-224.096 -169.731)"><path d="M741.944,224.233l-.028-.029,0,0A.313.313,0,0,0,741.944,224.233Z" transform="translate(-207.419 -21.82)" fill="#636363"/><path d="M731.272,200.221c.489.186.691.258.771.285a4.605,4.605,0,0,0,1.448-.031,3.4,3.4,0,0,0,.351-.195,1.975,1.975,0,0,1,1.5-.437,1.007,1.007,0,0,1,.62.5c.01,0,.144.106.216.163a3.454,3.454,0,0,1,.6.555,2.3,2.3,0,0,1,1.249-.2,1.243,1.243,0,0,1,.908.493,11.825,11.825,0,0,0,1.688,1.361c.144-.022.511-.116.719-.169a4.613,4.613,0,0,1,.694-.146c.014,0,2.539-.247,2.735,1.015.03.2.07.542.107.867l.057.489a2.823,2.823,0,0,1-.183,1.488,28.544,28.544,0,0,0-.086,3.109,3.865,3.865,0,0,1,1.569.818,1.54,1.54,0,0,0,.149-.056,1.373,1.373,0,0,1,.861-.718,1.164,1.164,0,0,1,.93.192,3.074,3.074,0,0,0,.966.234c.165.023.318.046.445.071a1.769,1.769,0,0,1,1.238,1.288c.037.094.071.183.11.267.067.143.135.323.207.516a5.688,5.688,0,0,0,.305.712c.159.058.559.173,1.513.4.186.045.326.079.382.095a3.953,3.953,0,0,1,1.867,1.958,1.361,1.361,0,0,1-.36,1.106,1.268,1.268,0,0,0-.122.176.718.718,0,0,0,.041.118,2.5,2.5,0,0,1,2.246.465c.079-.011.2-.031.385-.068.126-.511.408-1.314,1.3-1.314h.157c.165,0,.491,0,.77-.007.159-1.453.231-2.229.232-2.358,0-.1-.014-.337-.031-.637l0-.07a13.066,13.066,0,0,1-.045-2.125,2.889,2.889,0,0,1,1.652-1.713c.216-.067,1.948-.8,2.6-1.071.417-.175.72-.3.78-.325a1.6,1.6,0,0,1,1.25.122,4.244,4.244,0,0,0,1.128-.415,2.907,2.907,0,0,1,2.04-.753,2.8,2.8,0,0,1,.471.143l.027.01a3.113,3.113,0,0,1,1.852-.584.921.921,0,0,1,.6.451,12.222,12.222,0,0,1,.537,2.982,3.421,3.421,0,0,1,1.075.243,6.424,6.424,0,0,0,1.213.444c.406-.08,2.1-.328,2.628.258a9.475,9.475,0,0,0,.857.759l.326-.1a5.353,5.353,0,0,1,.786-.2,1.915,1.915,0,0,1,1.255.478,3.107,3.107,0,0,0,.355.227l0,0c.032-.065.064-.123.095-.176l-3.145-2.752,3.8,2a.946.946,0,0,1,.933-.016.939.939,0,0,0,.238.083c.127-.035.43-.109,1.259-.269a2.673,2.673,0,0,0,.288-.314,1.2,1.2,0,0,1,.237-1.173s.221-.254.511-.562l1.448-3.516-.45,2.578a1.081,1.081,0,0,1,.3-.171c.566-.165,1.128.224,1.372.951a3.149,3.149,0,0,0,.417.563c.4.115,1.141.3,1.423.336a2.988,2.988,0,0,0,.975-.723c.673-1.027,1.306-1.609,1.88-1.728.274-.057,2.75-.71,4.973-1.3a3.166,3.166,0,0,0,.3-.239c-.011-.055-.025-.115-.038-.175a2.032,2.032,0,0,1-.023-1.241c.068-.152.319-.882.384-1.12l-.021-.336c-.171-2.781-.135-3.019-.047-3.259a28.977,28.977,0,0,0,.414-3.115h0c-.005,0-.091-.24-.544-1.071l-.176-.321a4.353,4.353,0,0,1-1.224-.284c-.709-.32-.64-.961-.64-1.441s-.6.046-1.213.275a3.524,3.524,0,0,1-1.464.275,4.128,4.128,0,0,0-1.991.64,3.033,3.033,0,0,1-2.013.6c-.8-.069-1.6.511-1.983.526a4.725,4.725,0,0,0-1.586.305,8.874,8.874,0,0,1-2.09.915,5.372,5.372,0,0,1-2.44-.4,3.113,3.113,0,0,0-1.434-.473,15.31,15.31,0,0,1-4-1.006c-.381-.336-.412-.29-1.053-.137s-.839-.245-1.464-.427a13.862,13.862,0,0,1-2.639-1.434,12.144,12.144,0,0,0-1.129-1.373c-.366-.244-.9-.29-1.251-.534s-2.616-2.406-2.707-2.486a1.968,1.968,0,0,0-.641-.492,2.032,2.032,0,0,1-.927-.538,13.9,13.9,0,0,0-.846-1.442c-.412-.446-1.991-1.99-2.151-2.1a3.287,3.287,0,0,0-.961-.572,1.85,1.85,0,0,1-.869-.343,2.515,2.515,0,0,1-.526-1.018,15.041,15.041,0,0,1-.683-2.368,2.191,2.191,0,0,0-.031-1.1c-.152-.275-.915-.213-1.1-.488a23.3,23.3,0,0,1-.885-3.814,11.754,11.754,0,0,1,.336-2.41,1.006,1.006,0,0,0-.153-.977c-.183-.244-1.083-.2-1.189-.336a.581.581,0,0,0-.671-.076,1.653,1.653,0,0,1-.976.2c-.427-.061-.473-.275-.687-.092s-2.715,2.159-2.807,2.227a16.419,16.419,0,0,1-1.807.64c-.5.137-1.1-.275-1.533-.275s-1.442.824-1.808,1.007a2.4,2.4,0,0,0-.915.938c-.321.48-.641-.023-.961-.275a4.852,4.852,0,0,0-2.06-.366,1.941,1.941,0,0,0-1.167.755,34.8,34.8,0,0,0-.915,3.707c-.046.3-.984,4.118-1.19,4.919a41.178,41.178,0,0,1-1.967,4.279c-.161.275-.938,3.432-.938,3.432l-2.746,7.6-.647,1.732Z" transform="translate(-203.154 0)" fill="#636363"/><path d="M600.96,324.785c.3.472.584.907.634.986l.092.14a3.332,3.332,0,0,1,.671,1.336,3.176,3.176,0,0,1-.225,1.137c-.05.168-.112.373-.138.493a7.82,7.82,0,0,0,.328.968c.17.2,1.261,1.19,1.677,1.569.55.5.849.776.978.914a3.306,3.306,0,0,0,.963.126,4.4,4.4,0,0,0,.411-.24,2.193,2.193,0,0,1,.759-.364,26.7,26.7,0,0,1,2.84-.2A3.986,3.986,0,0,1,612.416,333a22.3,22.3,0,0,1,1.353,4.013,4.825,4.825,0,0,0,.43.519c.122.134.229.252.3.346a3.167,3.167,0,0,1,.23.349,9.54,9.54,0,0,0,1.14-.2c.04-.025.233-.178.325-.252a2.51,2.51,0,0,1,.8-.506,7.222,7.222,0,0,1,1.577-.106l.126,0h.013c.141-.239.33-.577.448-.79a12.349,12.349,0,0,1,.669-1.126c.224-.291.582-.483,3.878-1.849.795-.33,1.779-.737,1.935-.826a6.324,6.324,0,0,0,1.368-2.138,9.726,9.726,0,0,0-.24-2.023,3.528,3.528,0,0,1-.089-.6,14.052,14.052,0,0,1,.406-1.951c.159-.694.421-1.836.444-2.01.066-.938,1.253-1.405,1.265-1.41a1.787,1.787,0,0,1,1.289.008.97.97,0,0,1,.444.484c.1.129.546.634.791.913a14.111,14.111,0,0,1,1.049,1.265,4.484,4.484,0,0,1,.388.946c.027.083.061.189.092.278a7.694,7.694,0,0,0,1.488.516,1.272,1.272,0,0,1,1.283.967l.015.043a1.036,1.036,0,0,0,.222.018,1.775,1.775,0,0,1,1.721,1.205c.026.058.054.116.084.173a5.477,5.477,0,0,1,.562,1.546,11.421,11.421,0,0,0,1.307,1.6,12.652,12.652,0,0,0,2.09,1.419c.161.051.332.115.5.179.131.049.319.119.471.167a2.133,2.133,0,0,1,.493-.608,1.02,1.02,0,0,1,.851-.249l.2-.21.032.288a1,1,0,0,1,.527.746c.2,0,.5,0,.935-.028a3.179,3.179,0,0,0,.613-.152,2.732,2.732,0,0,1,1-.192c.637.049.914.632,1.3,1.437.037.079.121.257.194.4l.264,0c.283,0,.511,0,.71.022a2.859,2.859,0,0,1,1.663,1.173l.143.162c.114.123.319.321.53.524.253.245.453.438.6.589.051-.005.1-.013.158-.02a5.376,5.376,0,0,1,.673-.052.781.781,0,0,0,.168-.01c.019-.02.139-.171.256-.317l.076-.1a2.62,2.62,0,0,1,1.661-.868c.107-.022.2-.043.293-.065a2.716,2.716,0,0,1,.028-.633,6.616,6.616,0,0,1,.782-1.834c.119-.219.253-.465.286-.557a2.235,2.235,0,0,0-.139-.833l-.041-.149a5.863,5.863,0,0,1,.162-2.617,4.654,4.654,0,0,0,.089-1.384c-.493-.346-1.686-1.252-1.8-1.957-.031-.183-.094-.563.966-3.914l.057-.131a3.417,3.417,0,0,0,.433-1.17c.019-.26.021-.624.022-1,0-.518.006-1.048.049-1.433a2.806,2.806,0,0,1,1.016-1.621,2.771,2.771,0,0,0,.206-.2,19.021,19.021,0,0,0,.787-2,3.29,3.29,0,0,1,.43-.865c.058-.094.155-.25.2-.334,0-.105-.038-.323-.053-.423a3.835,3.835,0,0,1-.064-.589c0-.454,1.106-3.871,1.744-4.432a2.907,2.907,0,0,1,1.367-.562,3.96,3.96,0,0,0,.226-.352,10.263,10.263,0,0,0-.372-1.974,7.273,7.273,0,0,1-.2-2.076.838.838,0,0,1,.057-.272c.148-.364.282-.719.356-.93a3.882,3.882,0,0,0-.287-.351,2.452,2.452,0,0,1-.481-1.448,1.4,1.4,0,0,1,.621-1.3,2.128,2.128,0,0,1,.52-.2c.117-.035.2-.061.259-.081l.035-.073c.112-.232.187-.4.239-.51-.75-.141-2.852-.516-3.216-.566a.55.55,0,0,0-.239.06v0a1.425,1.425,0,0,1,0,.669.975.975,0,0,1-.674.645,1.528,1.528,0,0,1-1.33-.249c-.428-.356-1.9-5.6-2.661-8.429a1.015,1.015,0,0,1-.977-.152c-.156-.129-.263-.222-.759-1.693l-.635.42s-2.509,1.152-2.845,1.35-1.846,1.541-2.09,1.754a2.045,2.045,0,0,1-1.281.549c-.565,0-.778.412-.961.534s-2.746,2.318-2.974,2.44a12.3,12.3,0,0,1-2.181.427,8.575,8.575,0,0,0-1.434.107c-.244.077-2.974,1.922-2.974,1.922a8.546,8.546,0,0,1-1.235.549c-.107-.031-.137-.29-.229-.26s-2.349,1.266-2.349,1.266l-4.484,1.952s-5.216,2.105-5.384,2.166a7.543,7.543,0,0,0-1.708.671,4.4,4.4,0,0,0-.671,1.388c-.061.183-.076.336-.4.381a11.267,11.267,0,0,0-2.486,1.479,1.276,1.276,0,0,1-.854.519,1,1,0,0,1-.732-.58c-.046-.2-.6.046-.6.046s-3.112,3.264-3.112,3.386a3.788,3.788,0,0,0,.183.625.788.788,0,0,1-.046.519c-.046.092-3.233,4.347-3.233,4.347l-4.728,4.927-3.224,3.078Z" transform="translate(-150.933 -47.664)" fill="#636363"/><path d="M691.177,261.551c.114.345.218.646.3.883a1.045,1.045,0,0,1,1,.063.883.883,0,0,1,.356.617c.123.554,1.407,4.99,2.1,7.221a2.3,2.3,0,0,1,1.637-.483c.288.04,3.448.59,3.707.668a1.669,1.669,0,0,1,1.015,1.415,3.4,3.4,0,0,1-.483,1.334c-.056.118-.1.2-.113.24a1.591,1.591,0,0,1-1.156.773,1.535,1.535,0,0,0,.079.3c.035.038.069.078.106.12a1.856,1.856,0,0,1,.613,1.391,6.562,6.562,0,0,1-.452,1.316,5.327,5.327,0,0,0,.134,1.385c.007.022.644,2.235.367,2.986a1.91,1.91,0,0,1-.139.295c.342.011.948.021,1.317.026,1.788.028,2.162.047,2.448.2.059.03.218.1.424.182l.064.026a7.787,7.787,0,0,1,2.254,1.156,2.879,2.879,0,0,1,1.221-.609,1.194,1.194,0,0,1,1.225-1.223,2.663,2.663,0,0,1,.649.1l.01-.015c.246-.375.376-.59.444-.712-.053-.116-.129-.269-.173-.358a3.731,3.731,0,0,1-.517-1.508,16.176,16.176,0,0,1,.507-2.563c1.018-3.112,1.123-3.244,1.643-3.347a17.6,17.6,0,0,1,4.561,1.107.888.888,0,0,1,.391.581,2.088,2.088,0,0,1-.076.856,2.207,2.207,0,0,0-.071.369,9.251,9.251,0,0,0,.261,1.568,3.135,3.135,0,0,0,.553.1c.056-.005.187-.038.305-.064a1.891,1.891,0,0,1,1.336.025,2.552,2.552,0,0,1,.664.622,3.886,3.886,0,0,0,.394.417,6.08,6.08,0,0,0,1.336.119l.062-.1a1.417,1.417,0,0,1,1.005-.746c.909-.09,1.99-.051,2.373.556a12.681,12.681,0,0,1,1.605.09.437.437,0,0,0,.161-.01,1.251,1.251,0,0,1-.411-.609,1.71,1.71,0,0,1,.122-1.012c.019-.053.039-.108.053-.156-.021-.075-.055-.171-.082-.25a1.816,1.816,0,0,1-.081-1.537,6.137,6.137,0,0,1,.432-.574c-.2-.227-.365-.414-.427-.48a.841.841,0,0,1-.282-.64c0-.6.715-1.122.8-1.178.019-.015.043-.031.067-.048-.014-.07-.029-.14-.046-.215l-.019-.086a4.5,4.5,0,0,1-.189-2.389,5.517,5.517,0,0,1,.3-.56c.066-.11.176-.3.217-.389,0-.059-.011-.138-.017-.215a2.232,2.232,0,0,1,.326-1.709,5.7,5.7,0,0,1,.516-.5,5.844,5.844,0,0,0,.471-.451l.071-.274c.143-.559.281-1.089.39-1.4.025-.071.053-.144.082-.217l0,0a2.486,2.486,0,0,1-1.108-1.46c-.042-.335-.068-.425-.155-.539a3.457,3.457,0,0,0-.334-.237,1.659,1.659,0,0,1-.779-.805c-.16-.483.151-1.2.924-2.136a2.79,2.79,0,0,0,.225-.757,1.243,1.243,0,0,1,0-.222c-1.264-.454-1.831-1.005-1.735-1.679a1.368,1.368,0,0,1,.251-.589l-.094-.057a4.89,4.89,0,0,1-1.719-2.768,1.751,1.751,0,0,1,1.213-1.717,1.3,1.3,0,0,0,.378-.179l-.013-.064a1.234,1.234,0,0,1,.572-1.438,2.165,2.165,0,0,0,.263-.185,1.43,1.43,0,0,1,1.223-.433.9.9,0,0,1,.593.5,2.813,2.813,0,0,1,.156.613c.013.066.024.126.035.18.041-.023.083-.048.125-.075a1.677,1.677,0,0,1,1.528-.2.948.948,0,0,1,.493.845,8.155,8.155,0,0,0,.055.871c.2,0,.43-.008.549-.011a3.044,3.044,0,0,1,1.006.051,1.238,1.238,0,0,1,.57.429,2.129,2.129,0,0,0,.554-.225l.158-.1a3.743,3.743,0,0,1,1.734-.78,1.305,1.305,0,0,0,.608-.244,1.363,1.363,0,0,0,.167-.213l-.1-.1a1.458,1.458,0,0,1-.487-.665c-.183-.647.359-1.023.65-1.225a2.43,2.43,0,0,0,.287-.218,1.463,1.463,0,0,0,.085-.542,9.669,9.669,0,0,0-.278-1.191,1.58,1.58,0,0,1-1.43-.559,2.365,2.365,0,0,1-.295-.651c-.013-.039-.023-.076-.035-.109-.247-.189-.859-.724-.815-1.334a.93.93,0,0,1,.037-.2l-.174-.209h.268a.893.893,0,0,1,.364-.331,1.867,1.867,0,0,1,.893-.117,3.459,3.459,0,0,0,.954-.071,8.254,8.254,0,0,0,1.732-1.1,1.545,1.545,0,0,1,.757-1,1.006,1.006,0,0,1,.486-.081c.01-.243.019-.542.019-.816a1.246,1.246,0,0,1,.144-.535.575.575,0,0,0-.236.023,1.57,1.57,0,0,1-1.407-.159,1.968,1.968,0,0,1-.776-1.49,1.69,1.69,0,0,1,.375-1.116,5.539,5.539,0,0,0-.642-.6l-.244-.059a11.546,11.546,0,0,1-1.933-.558,2.656,2.656,0,0,1-1.044-1.579c-.059-.158-.11-.293-.158-.4s-.1-.225-.141-.339c-.037-.094-.091-.234-.132-.315-.077-.013-.161-.024-.25-.037a5.324,5.324,0,0,1-1.253-.285,1.1,1.1,0,0,1-.194.2c-.349.28-1.586.846-2.26.088a2.632,2.632,0,0,0-.828-.489h0a1.522,1.522,0,0,1-1.36-1.431c-.014-3.45.123-3.745.215-3.941a1.19,1.19,0,0,0,.066-.647l-.059-.5c-.014-.126-.028-.256-.043-.377a7.21,7.21,0,0,0-1.026-.052c-.077.01-.243.055-.407.1a5.6,5.6,0,0,1-1.24.227c-.791,0-2.247-1.356-2.759-1.874a.534.534,0,0,0-.246.033,2.125,2.125,0,0,1-.521.335l-.189,1.61-.573-1.513a1,1,0,0,1-.786-.918c-.072-.072-.206-.177-.285-.24s-.185-.146-.273-.224l-.173.1a5.163,5.163,0,0,1-.575.311,5.08,5.08,0,0,1-2.154.163l-.1-.005c-.106,0-.182,0-1.192-.384l-2.665,7.134-3.57,7.688s-4.354,7.711-4.415,7.832-1.068,1.983-1.312,2.5a20.666,20.666,0,0,0-.854,2.044,16.82,16.82,0,0,1-1.678,3.142c-.3.275-4.462,4.889-4.576,4.98a25.355,25.355,0,0,1-2.288,1.876c-.435.206-1.579.8-1.968,1.053l-.159.1Z" transform="translate(-187.075 -21.281)" fill="#636363"/><path d="M811.246,233.432c.1-.194.337-.647.376-.755.013-.089.023-.562.014-.952l-1-.079c-2.893-.225-2.912-.237-3.141-.384a1.08,1.08,0,0,1-.454-.918l-.459-.061a4.076,4.076,0,0,1-.766.629.808.808,0,0,1-.243.108c-.044.012-4.721,1.261-5.2,1.36a4.838,4.838,0,0,0-.835,1.017,3.7,3.7,0,0,1-2.442,1.467,14.666,14.666,0,0,1-1.887-.428,2.424,2.424,0,0,1-1.128-1.033c-.181.186-.367.38-.5.527.01.027.019.053.026.079a1.166,1.166,0,0,1-.189.941c-.007.011-.639,1.033-1.362,1.172-.837.161-1.181.242-1.246.263a1.615,1.615,0,0,1-.872,0c-.041.09-.122.285-.173.44a.9.9,0,0,1-.49.537,1.827,1.827,0,0,1-1.483-.2,3.87,3.87,0,0,1-.632-.384c-.051-.035-.157-.109-.242-.162-.124.033-.281.08-.379.11a3.527,3.527,0,0,1-.93.209c-.566,0-1.442-.822-1.794-1.177a6.656,6.656,0,0,0-1.153.064,3.6,3.6,0,0,1-2.347-.554,7.058,7.058,0,0,0-.723-.107c-.518-.06-1.009-.117-1.154-.695-.005-.023-.037-.216-.079-.51-.122-.86-.221-1.523-.294-1.985a2.953,2.953,0,0,0-.285.168,1.433,1.433,0,0,1-1.407.089c-.056-.022-.1-.041-.154-.055a3.556,3.556,0,0,0-.835.475c-.189.128-1.794.975-2.618.62-.061-.026-.157-.067-.227-.094l-.6.254c-1.71.72-2.564,1.074-2.8,1.14a2.292,2.292,0,0,0-.487.471c-.009.274.044,1.232.068,1.656.023.408.04.717.04.833,0,.245-.1,1.3-.307,3.134-.1.851-.85.885-2.186.879-.017.067-.032.136-.041.178-.07.311-.23,1.041-.973,1.041a1.428,1.428,0,0,1-.168.04,5.66,5.66,0,0,1-.764.121l-.058.112a7.144,7.144,0,0,1-.159,1.756,1.065,1.065,0,0,1-.6.592,1.341,1.341,0,0,1-.643.082c-.354.837-2.41,1.871-2.627,1.958a2.549,2.549,0,0,1-.6.149c.023.065.043.126.061.181.007.021.014.044.022.068.077,0,.186,0,.346-.008.1-.007.186-.011.249-.011,1.264,0,1.466,2.832,1.466,2.861a2.816,2.816,0,0,1-.36,1.453,1.744,1.744,0,0,1-.33.37,1.4,1.4,0,0,1,.3.578,2.136,2.136,0,0,1-.7,1.728,2.858,2.858,0,0,1-1.686.721,3.259,3.259,0,0,0-.9.505l-.175.116a3.5,3.5,0,0,1-1.643.524,1.278,1.278,0,0,1-1-.523l-.3.01c-1.019.027-1.521.026-1.868-.324-.094-.094-.31-.31-.414-1.183a1.824,1.824,0,0,1-1.253.23.95.95,0,0,1-.556-.405,2.162,2.162,0,0,1-1.45,1.172c-.013,0-.045.044-.061.173a5.2,5.2,0,0,0,.932,1.339c.149.091.229.134.294.168a3.082,3.082,0,0,1,.437.274,1,1,0,0,1,.417.679,1.231,1.231,0,0,1-.266.893,6.29,6.29,0,0,0,.671.257,1.2,1.2,0,0,1,.816,1.5c-.005.035-.011.068-.013.1a3.535,3.535,0,0,1-.6,1.886,6.779,6.779,0,0,0-.414.582,2.6,2.6,0,0,1,.637.545,2.388,2.388,0,0,1,.474,1.261,2.243,2.243,0,0,0,.568.487,1.019,1.019,0,0,1,.571.541,1.678,1.678,0,0,1-.12,1.313l-.065.174c-.09.255-.249.875-.344,1.245l-.092.357a2.744,2.744,0,0,1-.954,1.2c-.117.1-.231.2-.313.287a3.62,3.62,0,0,0,.02.541,2.6,2.6,0,0,1,.007.62,2.865,2.865,0,0,1-.43.967c-.068.116-.132.221-.179.315a9.648,9.648,0,0,0,.257,1.442c.045.2.082.373.1.493a1.3,1.3,0,0,1-.563,1.422c.117.134.261.3.436.5.159.146.758.692,1.01.895a10.476,10.476,0,0,0,2.6,1.038c.159.007.34.007.529.007,1,0,1.937,0,2.212.788a5.77,5.77,0,0,0,.526,1.213,1.554,1.554,0,0,1,1.114,1.287c.094.719.535,3.307.689,3.746.035.053.074.114.114.179.14.224.333.532.541.608a6.889,6.889,0,0,0,1.821.344,16.547,16.547,0,0,1,1.843-.934.955.955,0,0,1,.8.174,1.778,1.778,0,0,1,.724,1.12c.016.194-.417,2.64-1.291,3.033a1.6,1.6,0,0,1-.193.072c.057.2.1.346.139.45a1.117,1.117,0,0,1,.905,1.056,2.043,2.043,0,0,0,.039.274,2.172,2.172,0,0,1,.026.775,1.648,1.648,0,0,1,.8.824,5.409,5.409,0,0,1,.3,1.359c.513-.394.94-.515,1.371-.264a2.452,2.452,0,0,1,.327.236l.017-.01a1.181,1.181,0,0,1,.439-1.322,4.47,4.47,0,0,1,.689-.345c.129-.058.448-.2.62-.291a4.444,4.444,0,0,0,.048-.766,5.839,5.839,0,0,1,1.317-2.551,3.006,3.006,0,0,1,1.826-.578c.195-.021.5-.016,1.246,0,.526.01,1.714.031,2.286,0a1.045,1.045,0,0,1,.7-.623l.2-.546.169.547a.917.917,0,0,1,.691.689l.02.071a8.357,8.357,0,0,0,.418,1.244,5.087,5.087,0,0,1,1.249,1.638,4.756,4.756,0,0,0,.2.466,3.615,3.615,0,0,1,.4,1.136,1.638,1.638,0,0,1-.691,1.25l-.07.068a1.892,1.892,0,0,0,.139.167c.181.031.475.1,1.008.215.57.126,1.4.312,1.634.333a2.5,2.5,0,0,0,1.283-.207,4.821,4.821,0,0,1,2.3-.3c.047.008.136.016.244.027l.068.007c.957.1,1.484.149,1.72.683a1.139,1.139,0,0,1-.14,1.058,1.741,1.741,0,0,0-.092.182,1.319,1.319,0,0,0,.165.429c.14.064.356.147.593.24a10.434,10.434,0,0,1,1.475.653,14.551,14.551,0,0,1,2.672,2.38c.12.19.376.666.782,1.427.345.648,1.109,2.082,1.26,2.282.046.041.349.216.514.31.123.071.242.139.342.2a5.85,5.85,0,0,1,2.094-.773.621.621,0,0,1,.115.009,1.549,1.549,0,0,1,.807.54c.137.135.243.236.319.3a3.371,3.371,0,0,1,.167-.846,19.636,19.636,0,0,1,1.952-2.829l3.681-5.154c.059-.073.061-.076,1.03-1.023.488-.477,1-.979,1.115-1.094a3.7,3.7,0,0,0,.725-.955,8.11,8.11,0,0,1,1.609-2.581h0c.065-.057.411-.4.719-.7,1.566-1.53,1.821-1.75,2.268-1.75.26,0,.495.082,3.129,1.2.423.18,1.083.46,1.389.584.717-.127,3.316-.619,5.623-1.06s4.858-.906,5.248-.988c.382-.182,2.268-1.368,2.833-1.792a1.963,1.963,0,0,0-.12-.67,18.626,18.626,0,0,0-1.324-1.916l.008-.007c-.225-.179-.538-.471-1.011-.911-.953-.887-2.793-2.608-6.341-5.943-.991-.755-1.244-1-1.244-1.446,0-.7,2.431-3.132,2.584-3.208a11.572,11.572,0,0,0,1.168-.848c-.01-.058-.022-.117-.031-.167a1.731,1.731,0,0,1,0-1.133c.117-.233.248-.328,1.1-.945.29-.21,1.074-.779,1.392-1.05-3.96.1-4.162.028-4.376-.05-.1-.038-.26-.109-.445-.2a4.561,4.561,0,0,0-1.263-.456,2.965,2.965,0,0,1-2.009-.7,13.4,13.4,0,0,0-1.984-1.779l-.163-.04a2.87,2.87,0,0,1-1.7-.9l-.08-.1c-.088-.11-.3-.376-.466-.549a1.629,1.629,0,0,0-.2.268c-.03.052-2.875,4.974-3.629,5.224a2.894,2.894,0,0,1-.526.1c-.227.03-.375.056-.471.077a1.9,1.9,0,0,1-.953,1.539c-.357.188-.824.372-1.235.535-.258.1-.568.224-.676.282a11.2,11.2,0,0,0-.833,1.053,4.18,4.18,0,0,1,.716.509,1.589,1.589,0,0,1,.146,2.208c-.082.089-.182.212-.288.34-.538.655-1,1.217-1.6,1.057l-.207.208-.024-.305-.008,0c-.555-.318-.574-1.113-.506-1.68l0,0a1.465,1.465,0,0,1-.637.325,1.136,1.136,0,0,0-.158.05,1.57,1.57,0,0,0-.252.311.951.951,0,0,1-.321.665,2.071,2.071,0,0,1-1.731.313c-.081-.025-.257-.059-.464-.1-1.079-.225-1.472-.324-1.73-.583-.041-.034-.221-.171-.387-.3-1.431-1.1-1.8-1.4-1.8-1.931a2.515,2.515,0,0,1,.225-.829c.12-.33.2-.558.246-.716a1.138,1.138,0,0,1-.465-.362,1.412,1.412,0,0,1-.343-1.345.9.9,0,0,1,.065-.135l-.026-.054.059,0a.954.954,0,0,1,.618-.393,1.688,1.688,0,0,1,.409-.016l.034-.063a1.61,1.61,0,0,1,1.046-.876c.319-.106,1.918-.959,2.418-1.249a.539.539,0,0,0,0-.182.7.7,0,0,0-.031-.067,1.422,1.422,0,0,1,.417-1.942,2.2,2.2,0,0,0,.64-.784c.006-.044.112-.632.227-1.262.457-2.526.6-3.223.675-3.431.147-.387.512-.629,1.256-1.1l.088-.055a1.261,1.261,0,0,1-.323-.773,18.36,18.36,0,0,1,.442-2.256c.176-.842.446-2.128.589-2.865l-.376-.147c-1.192-.465-1.512-.6-1.714-.9a7.449,7.449,0,0,1-.367-3.275.859.859,0,0,1,.659-.487c.036,0,.12-.009.239-.012a6.638,6.638,0,0,0,.814-.056c.044-.11.089-.24.124-.36a.9.9,0,0,1-.368-.409.906.906,0,0,1,.008-.745,3.56,3.56,0,0,1,.215-.366l.024-.037a.94.94,0,0,1-.274-.92c.05-.2.21-1.072.221-1.223,0-.683.668-1.054,1.288-1.173a9.617,9.617,0,0,0,1.3-1.363,3.078,3.078,0,0,0,.088-.718c-.012-.058-.126-.5-.333-1.291a9.264,9.264,0,0,1-.224-.905.911.911,0,0,1,.228-.71,1.5,1.5,0,0,1,1.051-.406.952.952,0,0,1,1.362-.491c.077.04.189.1.314.173.1.058.357.2.511.278.119-.023.293-.062.441-.1,0-.08.008-.16.011-.228a2.237,2.237,0,0,1,.21-1.13,1.923,1.923,0,0,1,.634-.535c-.01-.022-.019-.043-.028-.065l-.06-.1c-.284-.458-.58-.935-.378-1.44C811.011,233.89,811.119,233.677,811.246,233.432Z" transform="translate(-210.41 -24.255)" fill="#636363"/><path d="M738.091,328.085c.071-.123.137-.236.191-.335a3.276,3.276,0,0,0-.17-.965,5.757,5.757,0,0,0-.568-.287c-.155-.071-.3-.137-.412-.2a.989.989,0,0,1-.552-.755l-.5-.237.54-.145a.933.933,0,0,1,.417-.508,1.157,1.157,0,0,1-.394-.276,3.12,3.12,0,0,1-.53-1.244c-.055-.2-.1-.358-.14-.454a.979.979,0,0,1,.02-.844,1.364,1.364,0,0,1,1.047-.631l.046-.01a9.406,9.406,0,0,0,.314-.905c-.314.165-.637.341-.789.435-.868.526-3.147-.242-3.17-.251a2.844,2.844,0,0,1-1.37-1.284c-.044-.071-.075-.12-.1-.162a23.106,23.106,0,0,1-.925-4.35.963.963,0,0,0-.13-.05c-.508-.163-.889-.692-1.322-1.856-.251-.018-.629-.019-.78-.019-.212,0-.417,0-.6-.009a10.647,10.647,0,0,1-3.565-1.4c-.122-.1-.3-.255-.48-.415l-.063.079q.038.125.107.33a2.46,2.46,0,0,1,.178.768,2.125,2.125,0,0,1-.148.683c.061.04.138.09.237.151s.206.128.268.173a.943.943,0,0,1,.408.77,1.305,1.305,0,0,1-.71,1.04l-.149.109a2.307,2.307,0,0,1-1.74.5,11.361,11.361,0,0,0-1.508-.067,1.173,1.173,0,0,1-1.2-.57c-.168-.011-.415-.02-.635-.012l-.022.033a1.98,1.98,0,0,1-.574.621c-.685.432-2.534.091-2.889-.064a2.926,2.926,0,0,1-.951-.833c-.047-.055-.1-.115-.144-.167-.06.011-.141.028-.249.052a2.879,2.879,0,0,1-.78.1,3.987,3.987,0,0,1-1.412-.373c-.834-.454-.933-2.919-.933-2.943a2.675,2.675,0,0,1,.073-.573c-.652-.187-1.837-.462-2.575-.611-.182.49-.451,1.272-.718,2.082a17.306,17.306,0,0,0-.439,2.1,5.613,5.613,0,0,0,.34.765,2.414,2.414,0,0,1,.39,1.2,3.8,3.8,0,0,1-.755,1.522c-.1.147-.16.24-.19.294a1.193,1.193,0,0,1-1.462.447,1.448,1.448,0,0,1-1.223,1.093,1.447,1.447,0,0,0-.411.159c-.164.458-.438,1.121-1.1,1.157l-.012.022-.015-.02c-.64,0-.927-.526-1.161-.962-.046-.086-.084-.158-.12-.219a15.932,15.932,0,0,0-1.683-.766c-.238-.1-.435-.184-.551-.239-.2-.02-1.212-.036-1.763-.044a6.594,6.594,0,0,1-2.139-.155,3.768,3.768,0,0,1-.578-.352,1.853,1.853,0,0,0-.5.153,20.666,20.666,0,0,0-1.209,3.265c0,.021.022.122.04.231a2.675,2.675,0,0,1,.017,1.2,3.524,3.524,0,0,1-.375.721,4.108,4.108,0,0,0-.243.424,15.749,15.749,0,0,1-1.031,2.524,3.127,3.127,0,0,1-.416.45c-.138.132-.492.469-.518.615-.033.3-.036.783-.039,1.253,0,.422,0,.827-.026,1.117a5.143,5.143,0,0,1-.6,1.769c-.433,1.391-.756,2.569-.845,3.007a8.34,8.34,0,0,0,1.215,1.011c.979.623.482,2.955.4,3.2a4.725,4.725,0,0,0-.126,1.627l.039.143a2.968,2.968,0,0,1,.1,1.847,6.52,6.52,0,0,1-.384.771,6.155,6.155,0,0,0-.6,1.32,1.347,1.347,0,0,0,0,.374,1.278,1.278,0,0,1-.894,1.476,4.8,4.8,0,0,1-.715.19c-.383.08-.589.129-.711.284l-.076.095c-.056.07-.11.138-.164.2a1.266,1.266,0,0,1,.279.32c.25.419.162.941-.116,2.121-.04.17-.076.322-.1.432l.033.041c.076.1.162.209.258.355.52.8-.043,1.854-.415,2.552-.043.08-.081.151-.111.211a1.149,1.149,0,0,0-.086.674c.018.1.349,2.21.39,2.715a1.274,1.274,0,0,0,.363.516l.134.107c.947.747,1.38,1.088,1.317,1.667a1.113,1.113,0,0,1-.519.774l-.031.022a5.881,5.881,0,0,0,.076.769,3.442,3.442,0,0,0,.731.826c.888.515,1.012,2.215.975,2.477a1.363,1.363,0,0,1-.89.966c0,.095.007.234.025.437.014.186.028.358.028.495a1.073,1.073,0,0,1-.55,1.042l-.011.1-.082-.058a1.045,1.045,0,0,1-.956-.128c-.1.017-.218.043-.269.055-.136.03-.261.057-.377.077-.073.012-.174.035-.294.062a4.609,4.609,0,0,1-2.354.132,5.419,5.419,0,0,0-1.584-.229.671.671,0,0,0-.241.041,2.6,2.6,0,0,1-.678.715,4.054,4.054,0,0,0-.451.414.778.778,0,0,0,.012.23l.088,0a2.49,2.49,0,0,1,.668.074c.8.239.757,1.129.721,1.79a2.046,2.046,0,0,1,.715.182,3.054,3.054,0,0,1,.96,1.558c.091-.011.209-.029.36-.057.08-.014.146-.026.191-.032a.979.979,0,0,1,.812.275,2.425,2.425,0,0,1,.511,1.7l-.011.114a4.242,4.242,0,0,1-.4,1.868,1.475,1.475,0,0,1-.545.474,1.218,1.218,0,0,1,.442.707l.188.568c.115.35.194.562.248.69.471.023.737.022.881.014a1.294,1.294,0,0,1,1.032-.77h.02l.145-.217.075.248a.965.965,0,0,1,.644.611c.05.129.1.309.155.5.032.119.061.216.084.294a1.618,1.618,0,0,1,.233-.051c.176-.026.694-.024,3.463.01l.11,0c1.141.014,2.487.02,3.268.03.171-.973.452-2.8.467-3.006a.94.94,0,0,1,.388-.96,1.172,1.172,0,0,1,1.241.065,3.5,3.5,0,0,0,.625.29c.1-.067.285-.2.527-.372l.113-.081c3.839-2.733,3.616-2.495,4.173-2.469.108,0,.19.007.249,0a4.843,4.843,0,0,1,1.513-1.366c.065-.032,7.7-3.545,8.282-3.7a7.211,7.211,0,0,1,.989-.132,10.916,10.916,0,0,0,1.4-.2,30.669,30.669,0,0,0,2.26-2.7c.341-.742,1.554-1.195,1.793-1.277l.184-.063c.479-.162.758-.275.92-.349a1.588,1.588,0,0,1,.159-1.259,4.118,4.118,0,0,1,.385-.493l.121-.142a8.906,8.906,0,0,0-.645-.934c-.606-.094-1.487-.28-1.561-1.1-.017-.179-.011-.65.008-1.707v-.065c.005-.3.01-.551.01-.674a14.64,14.64,0,0,1,.546-2.426c.164-.489.731-.971,1.791-.725a4.213,4.213,0,0,0,1.258,0c.17-.161.632-.7,1.376-1.6.351-.427.471-.571.55-.65a2.479,2.479,0,0,1,1.389-.53,9.532,9.532,0,0,0,1.731-.272,1.711,1.711,0,0,1,1.7-.345c.083.035.388.129.757.235a1.554,1.554,0,0,1-.134-.175,2.645,2.645,0,0,1-.27-2.256,2.61,2.61,0,0,0,.159-.348,1.472,1.472,0,0,1-1.09-1.447,8.127,8.127,0,0,0-.134-1.479,1.291,1.291,0,0,1,.1-1.224,1.538,1.538,0,0,1,1.328-.653,20.765,20.765,0,0,0,2.2-.161,1.869,1.869,0,0,0,.054-.419c0-1.253.535-1.561.984-1.6a2.492,2.492,0,0,1,.573.041,1.415,1.415,0,0,0,.221-.482,3.816,3.816,0,0,0-.109-.446,2.16,2.16,0,0,1-.113-.656,1.362,1.362,0,0,1,.742-1.2,5.806,5.806,0,0,0,.336-1.066c-.031-.091-.1-.261-.139-.34a2.1,2.1,0,0,1-.272-1.159c.011-.068.031-.281.059-.563a13.834,13.834,0,0,1,.443-2.932,11.21,11.21,0,0,1,.908-1.452,2.2,2.2,0,0,1-.038-.757A3.685,3.685,0,0,1,738.091,328.085Z" transform="translate(-183.419 -56.235)" fill="#636363"/><path d="M778.648,397.979a.842.842,0,0,1-.321.473c-.191.122-.114-.351-.213-.626s-.175-.457-.275-.5-.213.145-.4.13.008-.7-.046-1.068-.13-.533-.168-.5-.2.457-.305.694-.16.228-.153.053a11.3,11.3,0,0,1-.183-1.708c.076-.351-.213.32-.427.564s.176.557.282.831-.191.4-.29.427.076.145.076.26a.175.175,0,0,1-.206.191,2.291,2.291,0,0,1-.61-.1,19.587,19.587,0,0,1,.129-2.067c-.034-.309-.789-.767-.892-.755s-.034.538-.034.641.034.5-.034.526-.183-.309-.3-.5-.229-.08-.435.034.08.252.195.4-.069.389-.115.56-.218.16-.458.069a.772.772,0,0,0-.514-.08c-.1.046-.3.572-.457.6s.057-1.259.057-1.35a6.4,6.4,0,0,1,.572-1.19c.16-.218-.08-.938-.126-1.087s-.583-.789-.583-.858a3.5,3.5,0,0,1,.755-.561c.126-.057.011-.7,0-.873s-.747-.107-.809-.137.534-.412.656-.534a3.447,3.447,0,0,0,.092-1.22c-.015-.228.076-.564.275-.64s.336.595.5.747.748-.7,1.006-.93.382-.412.534-.305.4-.259.4-.259l-.092-8.069,10.744-2.488.008-.17c.012-.247.023-.481.018-.576-.011-.183-.034-.61,1.873-2.338a.468.468,0,0,1-.041-.026c-.513-.343-2.17-4.363-2.17-4.806V368.6c-.018-4.379.061-4.643.119-4.835a1.338,1.338,0,0,1,.07-.177c-.167.133-.357.285-.571.46a1.741,1.741,0,0,1-1.066.55c-.171,0-.171,0-1.265-.393-1.959-.7-3.122-1.093-3.461-1.167-.237.073-.877.372-1.2.522-1,.464-1.351.611-1.683.589a1.846,1.846,0,0,1-1.506-1.375,1.979,1.979,0,0,1,.636-1.488,7.339,7.339,0,0,1-1.467.2,4.723,4.723,0,0,1-1.78-.545c-.354-.27-.459-.715-.565-1.731l-.13.049a1.069,1.069,0,0,1-.986-.062.975.975,0,0,1-.394-.484l-.056.005-.044-.453c0-.031-.006-.06-.008-.088l-.018-.187a17.939,17.939,0,0,0-.307-2.334,17.045,17.045,0,0,0-1.547-1.794c-.283-.3-.527-.564-.67-.734a5.8,5.8,0,0,1-.851-3.454l-.15-.067c-.108-.046-.218-.094-.323-.147a6.162,6.162,0,0,1-1.52-1.425,2.3,2.3,0,0,1-.764.057,2.279,2.279,0,0,1-1.229-.8,7.356,7.356,0,0,0-.906.39,1.47,1.47,0,0,1-1.779.091c-.084-.058-.2-.121-.315-.189a4.4,4.4,0,0,1-.915-.625,16.12,16.12,0,0,1-1.5-2.6c-.285-.536-.64-1.2-.738-1.357a14.935,14.935,0,0,0-2.148-1.861,10.706,10.706,0,0,0-1.183-.51c-.316-.123-.6-.236-.768-.317a2.3,2.3,0,0,1-1.038-2.161l0-.014-.023,0c-.229-.023-.416-.045-.5-.062a3.6,3.6,0,0,0-1.285.2,4.16,4.16,0,0,1-2.1.342c-.315-.028-.96-.168-1.837-.363-.38-.085-.883-.2-.982-.209a2.21,2.21,0,0,1-1.568-1.958,1.766,1.766,0,0,1,.676-1.077l.12-.118c-.053-.116-.121-.261-.163-.351a6.353,6.353,0,0,1-.3-.707,4.783,4.783,0,0,0-.781-.908,2.139,2.139,0,0,1-.582-1,19.62,19.62,0,0,1-2.828.046c-.417-.007-.922-.017-1.026-.008a4.729,4.729,0,0,0-.884.143,6.623,6.623,0,0,0-.8,1.4,3.46,3.46,0,0,1-.245,1.552c-.208.418-.666.636-1.4.957l-.12.053a1.326,1.326,0,0,1,.048.336c0,.842-1.087,1.34-1.469,1.448a1.24,1.24,0,0,1-1.107-.22c-.195.177-.542.517-1.13,1.155l-.192.208a3.214,3.214,0,0,0-.206.251.818.818,0,0,1-.2.273,11.883,11.883,0,0,0-.844,1.307,23.654,23.654,0,0,0-.306,2.406c-.026.252-.047.45-.061.573.034.1.107.267.138.337a2.541,2.541,0,0,1,.285.972c0,.227-.322,2.03-1.045,2.463,0,.008,0,.017.008.026a5.442,5.442,0,0,1,.156.669,2.6,2.6,0,0,1-1.315,2.385,1.283,1.283,0,0,1-.446.019,2.276,2.276,0,0,1-.7,1.7,9.708,9.708,0,0,1-3,.409,10.165,10.165,0,0,1,.143,1.564,1.149,1.149,0,0,1,1.192,1.277,3.518,3.518,0,0,1-.426,1.389,1.863,1.863,0,0,0,.17.631,3.574,3.574,0,0,0,.435.312,1.819,1.819,0,0,1,.736.693,2.162,2.162,0,0,1-.105,1.827c-.583.682-3.013-.2-3.606-.431-.05.027-.131.076-.264.166a7.653,7.653,0,0,1-2.63.539c-.014.006-.176.05-.258.085-.076.088-.237.285-.406.492a12.158,12.158,0,0,1-1.777,1.964,4.383,4.383,0,0,1-2.468.206,13.29,13.29,0,0,0-.353,1.541c0,.126,0,.39-.01.7v.068c-.005.305-.014.776-.017,1.119.081.016.177.032.291.049l.068.01c.881.136,1.843,2.081,1.852,2.1.334.67-.177,1.262-.517,1.654-.075.086-.147.167-.2.237.008.047.023.112.032.146a2.416,2.416,0,0,1,.082.566c0,.922-1.113,1.3-2.1,1.634l-.177.061a2.379,2.379,0,0,0-.874.483,22.771,22.771,0,0,1-2.785,3.3,4.993,4.993,0,0,1-2.168.472c-.253.025-.635.061-.729.086-.482.157-7.565,3.39-7.974,3.583a3.506,3.506,0,0,0-.828.733,1.655,1.655,0,0,1-1.74.8h-.008c-.293.171-1.349.9-3.111,2.152-.373.266-.638.454-.737.52a1.641,1.641,0,0,1-1.586.105,12.209,12.209,0,0,1-.758,3.5c-.284.285-.284.284-4.655.23-1.207-.015-3.033-.037-3.239-.023.008,0-.014.016-.039.028a1.482,1.482,0,0,1-1.055.089,1.334,1.334,0,0,1-.786-.834,5.169,5.169,0,0,1-1.862.088l-.125-.007c-.758-.036-1.083-.8-1.338-1.562a1.088,1.088,0,0,1-.192.007.972.972,0,0,1-.406-.114c-.251.179-.5.344-.647.442-.01.075-.014.182-.018.255,0,.12-.011.237-.025.345-.13,1.107-4.336,3.395-4.377,3.408a2.328,2.328,0,0,1-1.688-.328c-.155.135-.4.361-.792.736a4.818,4.818,0,0,1-.462.42c-.108.077-.438.313-2.034.313-.228,0-.319.022-.536.279a17.89,17.89,0,0,1-2.973,2.489,4.862,4.862,0,0,1-.656.26c.077.677.19,1.647.224,1.907.071.55-.257,5.331-.321,6.22.573-.1,1.234-.207,1.368-.207a.928.928,0,0,1,.727.327l.309-.048-.179.26a1.153,1.153,0,0,1-.246,1.149,16.537,16.537,0,0,0-1.023,2.228l.156.026c2.369.387,2.833.51,3.127.823a2.046,2.046,0,0,1,.347,1.585l0,.07a12.275,12.275,0,0,0,.24,2.215,8.781,8.781,0,0,1,.894,2.325,2.3,2.3,0,0,1-1.183,1.927c-.219.118-.713.435-1.148.715a11.793,11.793,0,0,1-1.719,1.017c-.068.024-.16.052-.266.085l-.234.074c.075.135.152.271.216.385l.173.309h.007a1.337,1.337,0,0,1,1.027.2,1.163,1.163,0,0,1,.489.764c.033.107.459,1.285.714,1.989l.038.1c.435,1.2.576,1.6.611,1.722a.879.879,0,0,1-.006.517.934.934,0,0,1,.355-.07c.489,0,.759.35,1.1.794l.05.065a1.306,1.306,0,0,1,.989-.394,1.594,1.594,0,0,1,.863.518c.042.038.1.09.146.134l.214-.006a2.54,2.54,0,0,1,1.566.249,4.907,4.907,0,0,1,.968,1.2,9.859,9.859,0,0,1-.133-1.12c0-.945,3.8-5.713,3.833-5.741.23-.174.5-.241,1.5-.159l.13.025c1.59.5,2.531.759,2.783.807a10.031,10.031,0,0,0,1.221-.426,4.53,4.53,0,0,1,.995-.328,3.9,3.9,0,0,1,1.39.259c.112.033.183.054.236.068a1.816,1.816,0,0,0,.321.046c.011-.254.02-.647.019-1.242v-.1c0-.07-.011-.19-.022-.333-.084-1.06-.156-1.954.651-2.184a1.636,1.636,0,0,1,1.779.915c.037.088.081.22.129.372.02.064.038.12.055.171.476-.179,1.2-.456,1.747-.664l.176-.067c1.862-.712,1.87-.712,2.075-.712l.047,0a1.207,1.207,0,0,1,1.043.39c.038.047,3.486,5.158,3.486,5.7,0,.309,0,.345-1.562,2.357,2.31,2.139,2.362,2.268,2.432,2.444.255.637-.316,1.653-.322,1.663-.032.055-.074.12-.123.2a2.8,2.8,0,0,0-.271.472,5.718,5.718,0,0,0,.33.789c.132-.023.326-.061.6-.118a3.42,3.42,0,0,1,1.825-.126l.2.079c.995.388,1.476.576,1.524,1.14l.02.009-.019.012c0,.025,0,.049,0,.075,0,.49-.128.572-1.357,1.359-.275.176-.8.512-1.125.736.068.385.182,1,.3,1.648l.019.1c1.066,5.8,1.046,5.821.7,6.216a2.445,2.445,0,0,1-.648.456c-.127.074-.233.136-.317.188.092.5.273,1.606.647,4.236l.011.082,3.542-.014a2.484,2.484,0,0,0,1.1-.366,2.357,2.357,0,0,1,1.095-.214c.053.008,2.257.618,2.516.618a24.646,24.646,0,0,0,2.8-.557c.541-.168,3.493-.267,3.722-.373a7.15,7.15,0,0,1,1.479-.541,18.339,18.339,0,0,1,1.9.5s.488.167.541.3-.115.32-.168.366-.755,1.617-.778,1.724a.352.352,0,0,0,.122.282c.031,0,.694.053.809.053s.366-.6.732-.824.481.228.481.5.64.526.869.549.709.618.846.71a4.726,4.726,0,0,0,1.259-.252s6.886-9.472,6.91-9.541-.046-1.762-.046-1.762l1.335-2.158,9.457-7.565,9.457-4.973,7.84-7.627,4.607-2,4.965-.206s9.267-3.02,9.427-3.249a10.481,10.481,0,0,0,.648-2.112c-.031-.137-1.068-.305-1.144-.427s.015-2.288.015-2.5,2.075-1.235,2.166-1.327-.016-.884.107-1.189.32-.077.488-.031.625-1.312.633-1.571-.229-2.814-.244-3S778.724,397.788,778.648,397.979Z" transform="translate(-175.619 -64.965)" fill="#636363"/><path d="M498.727,632.984c-1.962-.792-3.782-1.555-5.411-2.267a6.913,6.913,0,0,1-3.856-3.562,12.732,12.732,0,0,0-2.5-3.314c-1.977-1.909-4.636-2.006-7.207-2.1a15.093,15.093,0,0,1-4.486-.6c-1.49-.533-3.527-1.018-5.5-1.489a27.621,27.621,0,0,1-5.664-1.689c-1.81-1.033-3.973-4.486-4.214-4.876a.833.833,0,0,1-.123-.433,2.639,2.639,0,0,0-.033-.264l-.568.012a10.075,10.075,0,0,1-1.069-.006c-.581-.065-1.083-.647-2.4-2.482-.19-.266-.321-.452-.389-.532a7.35,7.35,0,0,0-1.778-.5c-.539.017-10.787,1.183-11.5,1.365a2.278,2.278,0,0,1-1.966-.5l-.1-.065a8.576,8.576,0,0,0-2.022.577,4.33,4.33,0,0,1-2.637.3,1.038,1.038,0,0,0-.677-.1c-.123.016-.565.078-1.161.162l-.155.022c-3.688.519-4.891.677-5.149.677a3.158,3.158,0,0,1-1.642-.556,43.564,43.564,0,0,0-4.387-1.348c-.258-.025-4.984-1.278-5.363-1.529-.509-.343-3.778-7.5-3.778-7.848a8.375,8.375,0,0,0-.13-1.413c-.048-.025-.1-.05-.154-.074a2.052,2.052,0,0,1-.983-.786,13.1,13.1,0,0,1-.735-2.169c-2.733,1.193-6.959,3.031-6.959,3.031s-2.913,1.3-3.211,1.388a8.221,8.221,0,0,0-1.739.481c-.3.229-.229.549-.572.641s-.137-.412-.115-.573-6.91,1.144-7.024,1.144-8.58,1.624-9.266,1.624a8.858,8.858,0,0,0-2.082.229,10.511,10.511,0,0,0-1.922,1.853,8.4,8.4,0,0,0-.595,2.2,1.641,1.641,0,0,1-.709.846c-.275.228-.343.664-.526,1.029a5.375,5.375,0,0,1-1.693,1.51,4.28,4.28,0,0,0-1.6.87,2.3,2.3,0,0,0-.183.8,45.769,45.769,0,0,0-1.728,4.711c-.265,1.238-2.477,7.165-3.627,8.227a7.258,7.258,0,0,0-2.034,4.423,16.414,16.414,0,0,1-.973,4.6c-.442,1.15-1.946,6.9-2.831,7.519s-6.4,4.718-7.342,5.19-2.594,1.062-3.184,1.769-1.238,1.651-2.182,1.651-3.952.885-4.305.825c-.291-.049-2.477,3.833-2.831,4.128a25.838,25.838,0,0,1-2.712.825,3.478,3.478,0,0,0-1.77,1.474c-.53.826-1.71,2.005-1.533,2.536a24.079,24.079,0,0,1-.589,6.015c-.413,1.415-3.3,4.659-3.657,6.369a45.482,45.482,0,0,1-1.828,5.662c-.53,1.415-2.3,4.776-2.771,6.074s-1.3,7.961-.944,8.787a12.664,12.664,0,0,1,.649,4.01c0,1.357-1.828,4.128-2.123,5.661s.531,2.418,0,2.949-2.831.413-3.007,1.533a1.7,1.7,0,0,0-.014.413l.276.068c2.56.628,5.749,1.425,6.4,1.663a4.73,4.73,0,0,1,1.9,1.925,5.367,5.367,0,0,0,1.09,1.31c.569.3,4.153-.141,5.41-.471.691-.182,8-1.443,9.188-1.443,1.22,0,11.232,2.48,11.686,2.613a3.48,3.48,0,0,0,2.133-.07c.67-.25,9.822-3.434,11.113-3.666a42.031,42.031,0,0,1,7.951.639c.4.145,8.761,2.545,9.415,2.663a12.843,12.843,0,0,0,4.718-.146c1.556-.529,5.479-1.366,6.553-1.077a30,30,0,0,0,4.327.444,12.613,12.613,0,0,0,1.957-.336l.126-.026.04-47.26,93.235.118-.033-31.908Z" transform="translate(-39 -170.591)" fill="#636363"/><path d="M654.387,485.14c-.377-.814.539-1.343,1.152-1.7l.008,0c-.13-.989-.61-3.6-.857-4.941a11.873,11.873,0,0,1-.4-2.485c.052-.42.272-.614,1.347-1.31-.16.031-.308.061-.39.078-.9.184-1.276.253-1.625.1-.727-.3-1.169-1.735-1.25-2.018a2.232,2.232,0,0,1,.5-1.75c.029-.044.054-.082.07-.109a1.989,1.989,0,0,0,.117-.281c-.448-.43-1.544-1.456-2.47-2.31a.829.829,0,0,1-.091-1.114c.532-.683,1.162-1.5,1.52-1.978-.637-1.023-2.227-3.514-2.782-4.36-.3.114-.921.349-1.4.533l-.073.028a19.4,19.4,0,0,1-2.757.979.94.94,0,0,1-.7-.2c-.008,1.357-.084,1.72-.269,1.985-.483.7-1.747.465-2.123.376-.078-.02-.163-.045-.261-.074a7.462,7.462,0,0,0-.78-.2c-.134.045-.415.155-.577.218a5.34,5.34,0,0,1-1.9.541,26.949,26.949,0,0,1-3.074-.853c-.13-.007-.249-.012-.346-.014-.711.915-2.745,3.751-3.082,4.4.029.264.125.884.18,1.241.29,1.886.32,2.084.043,2.43a1.277,1.277,0,0,1-1.3.367c-.414-.069-.508-.207-1.408-1.526-.2-.3-.7-1.033-.922-1.312-.116-.008-.312-.008-.586,0a2.445,2.445,0,0,1-.775-.046,1.744,1.744,0,0,1-.652-.416,1.527,1.527,0,0,1-.946.427c-.514,0-.839-.387-1.2-.851-.633.438-1.053.724-1.556.557-1.731-.6-1.731-1.2-1.731-1.4,0-.472.283-.671.846-1.067q.325-.228.51-.369c-.11-.31-.268-.745-.424-1.175-.354-.978-.556-1.54-.672-1.875l-.2.855-.389-.914a.935.935,0,0,1-.74-.589c-.039-.084-.191-.354-.339-.615a10.523,10.523,0,0,1-.641-1.223.921.921,0,0,1,.048-.726c.251-.5.881-.691,1.548-.9.093-.028.168-.051.224-.07.154-.067.944-.574,1.369-.846.544-.349.99-.635,1.253-.777a.68.68,0,0,0,.315-.45,11.763,11.763,0,0,0-.7-1.581,10.5,10.5,0,0,1-.43-3.025c0-.027,0-.079.008-.147.008-.12.011-.213.011-.285-.3-.069-.91-.184-2.085-.376-.541-.088-.74-.122-.857-.153-.457-.122-.956-.477-.75-1.471l.037-.189a10.844,10.844,0,0,1,.736-1.886c-.349.061-.64.113-.711.131a.915.915,0,0,1-.836-.189c-.405-.37-.3-.873-.2-1.317.028-.128.055-.245.066-.342.068-.584.359-5.563.331-5.971-.029-.215-.117-.969-.191-1.611-.59.171-1.213.345-1.761.5l-.257.071a5.373,5.373,0,0,0-.608.451l-3.429,5.94a.83.83,0,0,1-.166.2,2.207,2.207,0,0,1-.875.481c-.34.091-.661.011-2.862-.712-.363-.119-.831-.272-1.086-.349-.31.171-1.065.611-1.5.866-.874.509-1.423.827-1.689.936a30.009,30.009,0,0,1-5.047.335c-.379-.011-1.517-.131-2.834-.269-2.115-.222-2.854-.282-3.112-.3a8.75,8.75,0,0,0-1.3,1.76,1.3,1.3,0,0,1-1.1.659c-.2.025-1.232.12-1.678-.4-.286-.334-.278-.709-.189-2.424.021-.411.052-1.011.041-1.139a5.547,5.547,0,0,0-.545-.866,4.741,4.741,0,0,0-.619.52,11.217,11.217,0,0,1-2.825,1.588c-.171.059-.379.12-.587.179-.095.028-.26.075-.4.12-.087.568-.231,1.605-.248,1.758a.917.917,0,0,1-.365.615c-.2.142-.574.407-3.2-.2a4.173,4.173,0,0,0-1.811.029,5,5,0,0,1-2.446.11c-.254-.127-.545-.42-1.373-1.4a.9.9,0,0,1-.5.441,1.441,1.441,0,0,1-1.253-.306c-.048-.028-.117-.07-.184-.108-.125.1-.276.236-.34.294a2.105,2.105,0,0,1-1.309.734c-.4,0-.848-.245-1.836-.847-.119-.073-.277-.169-.421-.255a1.2,1.2,0,0,1-.75.557,1.386,1.386,0,0,1-.823-.1c-.079.24-.172.555-.267.932a3.627,3.627,0,0,1-.14.445l1.107.959-1.5-.328a.963.963,0,0,1-.9.261c-.083-.019-.293-.075-.546-.143-.345-.093-.92-.249-1.122-.287-.854-.161-1.382-1.294-1.382-2.251a.823.823,0,0,0,0-.1c-.022-.014-.046-.028-.071-.044l-.117-.075c-.472-.313-.539-.891-.616-1.56-.013-.111-.042-.364-.072-.525-.151-.074-.465-.208-.978-.4a14.644,14.644,0,0,0,.107,2.5,1.715,1.715,0,0,1-.168,2.3c-.228.305-.671,1.358-.9,1.77s-.58.58-.686.885a5.589,5.589,0,0,0-.016,2.3c.214.213,1.159.031,1.587.031s2.1,1.739,2.227,1.983.518.641.762.641a1.025,1.025,0,0,1,.733.183,27.294,27.294,0,0,1,1.037,2.776,2.737,2.737,0,0,0,1.373,1.068c.244.061,0,1.8,0,2.075s-1.22,6.8-1.22,7.291a5.706,5.706,0,0,1-.64,1.647l-2.532,5.247-1.464,3.081s-3.447,3.264-3.661,3.569c-.106.15-.664.91-1.228,1.666l.135.3a4.785,4.785,0,0,1,.581,1.738c0,.218-.029.729-.06,1.233-.007.114-.013.226-.019.331a11.815,11.815,0,0,0,1.351-.752,1.008,1.008,0,0,1,1.069-.43l.62-.618-.16.885a1.131,1.131,0,0,1,.288.815,5.031,5.031,0,0,1-.338,1.344c-.063.2-.2.609-.245.8a5.551,5.551,0,0,0,.6,1.057,6.579,6.579,0,0,0,1.681-.007,3.189,3.189,0,0,0,.768-.464,1.688,1.688,0,0,1,1.016-.906,1.037,1.037,0,0,1,.909.177,1.109,1.109,0,0,1,.371.55c.173.009.341.022.5.047a.865.865,0,0,1,.433-.607l0-1.039.507.932a.917.917,0,0,1,.409.149,1.133,1.133,0,0,1,.565-.408c.361-.126,1.456-.514,2.054.283.081.108.252.359.439.641a.77.77,0,0,1,.572-.216,1.2,1.2,0,0,1,.59.189c.407.2.667.313.828.374.1-.152.228-.342.353-.53a12.612,12.612,0,0,1,.8-1.136c.364-.4.991-.456,2.819-.432h.087c.164,0,.288.005.345,0,.45-.026.656-.034,3.558,3.01l.246.252a1.32,1.32,0,0,1,.3,1.677,4.475,4.475,0,0,0,.153,1.292c.571,1.371,1.024,2.428,1.105,2.576a14.58,14.58,0,0,1,.969,2.578c.084.753-.707,1.371-1.05,1.6-.053.035-.122.074-.209.122-.245.136-.39.228-.474.287,0,.065,0,.135.007.189a2.8,2.8,0,0,1-.023.662,7.666,7.666,0,0,1-1.683,2.265.929.929,0,0,1-.814-.014,1.5,1.5,0,0,0,.085.694,2.537,2.537,0,0,1,.008,1.507l-.013.069c-.01.055-.02.1-.023.135,0,.057.031.215.069.415l.385,1.21a1.048,1.048,0,0,1,.734,1.135,3.005,3.005,0,0,1-.392,1.084c-.026.052-.073.144-.117.237a3.208,3.208,0,0,1,1.041,1.166c.058.12.108.233.155.337.022.049.072.161.116.25.772.025,3.654.146,4.27.564a3.506,3.506,0,0,1,1.092,2.283.463.463,0,0,0,.034.207,5.054,5.054,0,0,1,1.812,1.738l0,0,5.9,8.17-.005-11.758s6.063-2.792,6.338-3.02,3.653-3.73,3.913-3.974a2.7,2.7,0,0,1,1.052-.519c.489-.168,1.129-1.053,1.388-1.434s.366-.107.58.076.4.076.778-.107,1.342-1.617,1.723-1.876,3.127-1.815,3.554-1.967.366-.458.427-.778,1.4-1.377,1.639-1.571a2.968,2.968,0,0,1,1.087-.412c.309-.057.938-.069,1-.183s0-.48.137-.675,1.681-1.361,1.922-1.567a7.436,7.436,0,0,1,2.082-.469,2.375,2.375,0,0,0,1.156-.5,3.909,3.909,0,0,0,.514-1.484.687.687,0,0,1,.763-.686c.519,0,2.7.2,3.142.2a26,26,0,0,0,3.721-.839c.473-.2,2.136-2.242,2.609-2.516s4.076-1.766,4.27-1.777.881.675,1.018.733,4.244.183,4.42.152.4.412.442.473.373.046.541-.053a.465.465,0,0,1,.526.137,4.324,4.324,0,0,0,.633.656c.153.076,1.342.221,1.449.26a14.928,14.928,0,0,0,1.738-1.388,16.858,16.858,0,0,1,1.968-.809,11.971,11.971,0,0,1,2.532.122,1.033,1.033,0,0,0,.808,0c.321-.183,1.831-1.449,1.831-1.449l.647,0C654.563,486.049,654.425,485.3,654.387,485.14Z" transform="translate(-132.778 -107.861)" fill="#636363"/><path d="M563.151,400.749a4.809,4.809,0,0,0-.5,1.922c-.023.48.412.32.458.526s.206,1.914.206,2.234c0,.158-.052.878-.1,1.609l.153.054c1.5.525,1.87.8,2.041,1.016a2.658,2.658,0,0,1,.385,1.375c.011.094.038.329.066.487a1.6,1.6,0,0,1,.755,1.485,1.361,1.361,0,0,0,.183.662c.273.062.682.171,1.056.272.427-1.705.782-2.505,1.59-2.418a1.66,1.66,0,0,1,.647.24,1.123,1.123,0,0,1,1.359-.569,6.646,6.646,0,0,1,1.12.61c.2.121.638.39.911.533.1-.085.217-.188.275-.24.511-.457.985-.881,1.587-.771a2.149,2.149,0,0,1,.682.279c.413-.622.737-.695.86-.721a.933.933,0,0,1,.815.236c.043.043.192.218.39.455.679.816,1,1.174,1.146,1.323a5.953,5.953,0,0,0,1.228-.174,5.779,5.779,0,0,1,2.673-.062c.668.154,1.258.257,1.653.31.08-.58.2-1.427.245-1.6.147-.589.711-.752,1.492-.976.183-.053.358-.1.5-.153a11.35,11.35,0,0,0,2.165-1.16c.279-.3,1.727-1.764,2.6-1.022a5.977,5.977,0,0,1,1.406,2.325,11.94,11.94,0,0,1-.034,1.392c-.014.276-.038.75-.049,1.114l.029,0c.377-.656,1.473-2.4,2.472-2.441.293-.011,1.1.063,3.458.31,1.2.125,2.4.252,2.709.261a34.664,34.664,0,0,0,4.393-.219c.155-.064.907-.5,1.456-.821,1.765-1.027,1.978-1.133,2.295-1.133a6.806,6.806,0,0,1,1.65.468c1.3.427,1.828.578,2.039.631h0l3.42-5.925a.856.856,0,0,1,.172-.209,4.574,4.574,0,0,1,1.344-.881l.267-.074a32.14,32.14,0,0,0,3.7-1.123,18.077,18.077,0,0,0,2.473-2.088,2.161,2.161,0,0,1,1.8-.866,8.878,8.878,0,0,0,1.141-.068l.113-.108.1-.1c1.112-1.067,1.488-1.4,2.04-1.288a2.255,2.255,0,0,1,.517.211,3.742,3.742,0,0,0,.608.263,27.2,27.2,0,0,0,3.209-2.2V393.9a1.709,1.709,0,0,1,.655-1.49c.481-.309.924-.629,1.121-.788,0-.006,0-.012,0-.018a1.877,1.877,0,0,1,.623-1.335,3.29,3.29,0,0,1,.521-.333l.007,0c.028-.137.079-.441.143-1.084l.012-.117a.438.438,0,0,0,0-.086c-.62.073-1.494.043-1.7-.809a5.391,5.391,0,0,0-.363-.921l-.065-.009a1.6,1.6,0,0,1-1.3-.623,1.878,1.878,0,0,1-.126-1.076c0-.057.006-.109.008-.156a1.365,1.365,0,0,1-1.169-.544,2.34,2.34,0,0,1-.112-2.148,3.5,3.5,0,0,1,.824-.859c.088-.074.207-.17.282-.242a1.818,1.818,0,0,1,1.7-.9,7.128,7.128,0,0,1,2.123.32,4.84,4.84,0,0,0,1.44-.18c.163-.037.3-.067.4-.083s.174-.034.265-.055a4.9,4.9,0,0,1,.555-.1c-.034-.61.014-1.3.639-1.588.05-.023.135-.062.219-.1a2.684,2.684,0,0,0-.19-.6,3.977,3.977,0,0,1-1.46-1.893l-.008-.055c-.153-1.026-.128-1.515.095-1.87l.03-.046c-.147-.119-.289-.23-.363-.288l-.135-.108a2.618,2.618,0,0,1-.984-1.729c-.014-.183-.318-2.221-.369-2.5a2.8,2.8,0,0,1,.234-1.705c.035-.07.081-.156.132-.251a4.217,4.217,0,0,0,.426-.963c-.038-.053-.073-.1-.1-.138a1.493,1.493,0,0,1-.366-1.361c.023-.122.062-.291.107-.481.111-.472.172-.761.2-.938a1.341,1.341,0,0,1-.509-.408c-.088.008-.17.019-.249.028a1.511,1.511,0,0,1-1.485-.388c-.082-.1-.408-.415-.624-.623-.243-.234-.474-.458-.6-.6-.052-.055-.112-.125-.179-.2a3.345,3.345,0,0,0-.62-.615c-.132-.01-.28-.01-.426-.01h-.079a3.009,3.009,0,0,1-1-.1c-.436-.158-.628-.564-.947-1.237-.045-.094-.125-.263-.2-.414l-.109.034a4.155,4.155,0,0,1-.981.224,4.419,4.419,0,0,1-2.162-.169,1.123,1.123,0,0,1-.69.283,3.634,3.634,0,0,1-1.361-.32c-.146-.055-.291-.11-.427-.152a12.777,12.777,0,0,1-2.715-1.785c-.017-.016-1.758-1.773-1.816-2.58a3.738,3.738,0,0,0-.388-1c-.043-.081-.082-.165-.121-.248a1.777,1.777,0,0,0-.128-.246s-.037,0-.1,0a1.649,1.649,0,0,1-1.735-1.01l-.016-.038a8.415,8.415,0,0,1-2.344-.867,1.851,1.851,0,0,1-.572-1.043,4.427,4.427,0,0,0-.219-.586c-.083-.129-.575-.691-.869-1.027-.4-.46-.645-.741-.8-.933a1.245,1.245,0,0,0-.147.108c-.044.273-.17.832-.46,2.1-.1.444-.3,1.32-.358,1.6.008.042.02.1.034.175l.02.1a9.052,9.052,0,0,1,.251,2.576,6.96,6.96,0,0,1-2.152,3.306c-.212.127-.758.357-2.151.935-.932.386-2.813,1.166-3.257,1.412-.113.186-.354.619-.481.845-.752,1.341-.848,1.514-1.285,1.6a4.68,4.68,0,0,1-.706.035c-.232.005-.873.02-1.116.04-.081.057-.187.145-.268.21a3.292,3.292,0,0,1-.731.491,7.93,7.93,0,0,1-2,.326,1.3,1.3,0,0,1-.411-.053,1.378,1.378,0,0,1-.753-.716,1.978,1.978,0,0,0-.143-.228c-.044-.057-.112-.129-.186-.211a2.473,2.473,0,0,1-.876-1.548,29.653,29.653,0,0,0-1.114-3.251,3.182,3.182,0,0,0-1.145-.571c-.4-.017-2.037.117-2.409.162-.068.037-.157.1-.224.14a2.431,2.431,0,0,1-1.24.5,3.188,3.188,0,0,1-2.227-.65c-.089-.1-.492-.463-.847-.788-1.654-1.509-1.961-1.818-2.087-2.1a6.61,6.61,0,0,1-.5-1.692,3.72,3.72,0,0,1,.213-.956c.036-.121.1-.348.14-.493-.054-.1-.161-.273-.378-.6l-.11-.167c-.049-.077-.267-.417-.52-.81-2.542,2.428-5.248,5.013-5.333,5.1-.16.16-.755.526-.755.733s.275.389.228.664.389.755.6.915a2.222,2.222,0,0,1,.58,1.091c-.061.152-.427.549-.549.824s.275.885.183,1.129-1.464,1.342-1.495,1.8.305.763.7,1.007,1.006.4,1.129.732-.519.946-.793,1.282.091.64.122,1.037a15.317,15.317,0,0,1-.091,1.617c-.031.458-1.1,1.373-1.343,1.678a32.61,32.61,0,0,0-1.129,3.325,50.285,50.285,0,0,1-3.516,4.157s-5.24,6.521-5.422,6.681-.16.412-.16.755a7.99,7.99,0,0,1-.092,1.785,16.334,16.334,0,0,1-1.441,2.013,20.252,20.252,0,0,0-1.282,2.792,9.455,9.455,0,0,1-1.464,2.136,1.382,1.382,0,0,0-.32.93c.015.213.885.824,1.144.976s.206,1.976.137,2.2A28.927,28.927,0,0,1,563.151,400.749Z" transform="translate(-135.611 -71.252)" fill="#636363"/><path d="M910.707,289.988c-.061-.015-3.158-1.388-3.158-1.388l-4.48-7.169s1.087-.549,1.361-.64a.842.842,0,0,0,.526-.8,5.13,5.13,0,0,0,.114-2.06,14.732,14.732,0,0,0-2.036-2.287c-.206-.206-.869-.618-1.053-1.122a8.01,8.01,0,0,0-.937-1.99,14.171,14.171,0,0,1-1.518-2.235c0-.153.031-3.066.031-3.066s1.25-2.227,1.266-2.3.061-1.308.072-1.468a13.845,13.845,0,0,1,.87-1.236,9.373,9.373,0,0,0-.355-.881c-.057-.195.1-1.91.092-2a5.409,5.409,0,0,0-.915-.652,17.555,17.555,0,0,1-.572-1.662c-.076-.137-1.419.152-1.693.152s-.747-.869-.747-.869l.2-.976,1.716-1.46-.824-3.306,1.384-7.779-1.7-4.248.016-2.761-1.979-2.807,2.688-3.432s-2.1-.915-2.1-.961.115-.275.061-.343-1.617-2.341-1.693-2.432a7.647,7.647,0,0,0-.976-.458l2.181-2.73.107-.946.869-.717-1.739-.915s-.015-.427-.122-.457-.885.031-1.007.031-1.174-.6-1.266-.61a5.51,5.51,0,0,1-.167-1.235c0-.046-2.06-1.235-2.151-1.282s-.077-1.876-.122-1.983-1.418.442-1.8.458-1.4-.885-1.617-1.159-.782-1.258-.93-1.373-.95-.5-1.35-.733-.778-1-.927-1.167-.011-1.213-.011-1.213-.473-.076-1.037-.213a12.321,12.321,0,0,1-2.361-1.285c-.137-.126-.275.149-.286.32s-.137.218-.378.126-1.247-.789-1.487-.938-.4.023-.664.16a9.045,9.045,0,0,1-2.6,1.682,8.534,8.534,0,0,1-3.592-.065,7,7,0,0,1-2.426-1.083c-.32-.244-2.257-2.059-2.349-2.075s-.32.046-.2.229,1.876,1.739,1.983,1.983.061.5-.336.625a2.632,2.632,0,0,1-1.647-.183c-.32-.229-2-1.739-2.1-1.861s-.626-.549-.442-.854.58-.58.564-.869-.5-.7-.732-1.129-.016-.839-.153-1.4-.366-1.037-.457-1.556a24.854,24.854,0,0,1-.244-2.7,4.908,4.908,0,0,1,.213-.961c.015-.137-.793.046-1.068.107s-.29.412-.29.854a3.739,3.739,0,0,1-.351,1.235.479.479,0,0,1-.625.168c-.137-.107-.366,0-.366.335a6.407,6.407,0,0,1-.2,1.663,4.026,4.026,0,0,1-1.129,1.144c-.244.168-.64-.122-.93-.122s-.4.366-.641.641a7.14,7.14,0,0,1-1.418,1.083c-.29.122-2.319.839-2.73.961a6.48,6.48,0,0,1-1.449.534,7.469,7.469,0,0,1-2.395-.381c-.565-.244-.946-.061-1.739-.153a11.559,11.559,0,0,1-2.792-1.083,7.375,7.375,0,0,1-2.013-1.777c-.183-.389-1.578.046-2.151.229s-.549.549-.663,1.235a1.845,1.845,0,0,1-.653,1.03l.037.061a5.046,5.046,0,0,1,.646,1.486,21.369,21.369,0,0,1-.478,3.834c0,.064-.008.518.124,2.659.017.3.027.463.027.495a7.575,7.575,0,0,1-.473,1.587c.014.093.044.236.062.325,1.194.152,1.284.2,1.463.339a.99.99,0,0,1,.335.837c.573.049,1.475.119,2.087.167a10.925,10.925,0,0,1,1.864.184c1.063.357.583,2.949.575,2.974a7.459,7.459,0,0,1-.489,1.032l-.077.147.127.2a1.833,1.833,0,0,1,.2.385l.033.059a1.617,1.617,0,0,1,.264.978c-.071.455-.424.678-.871.96l-.127.08c0,.091-.008.2-.013.293a2.3,2.3,0,0,1-.227,1.2c-.417.622-1.965.735-1.98.735a1.828,1.828,0,0,1-.872-.318,1.286,1.286,0,0,1-.665.306,14.322,14.322,0,0,1,.379,1.563,4.026,4.026,0,0,1-.238,1.552c-.165.368-1.66,2.166-2.435,2.277l-.041.007c-.033.228-.083.495-.125.709a1.149,1.149,0,0,1,.278.284,1.111,1.111,0,0,1-.091,1.235c.636.778-.272,2.4-.281,2.416a1.682,1.682,0,0,1-1.444.645c.043.405.108.88.159,1.16.248.1.667.263.9.354,1.122.438,1.321.515,1.475.9.12.3.12.3-.656,4-.136.651-.29,1.385-.366,1.764l.122.147a2.368,2.368,0,0,1,.426.631c.271.722-.344,1.108-1.123,1.6-.124.078-.456.286-.623.409-.1.481-.4,2.1-.547,2.924-.26,1.433-.275,1.5-.305,1.592a3.692,3.692,0,0,1-1.121,1.5,2.078,2.078,0,0,1,.129.337,1.86,1.86,0,0,1-.486,1.855,26.176,26.176,0,0,1-3,1.564c-.032.01-.058.019-.08.028s-.027.049-.044.08c-.038.07-.084.152-.141.247a1.544,1.544,0,0,1-.2.261l.013.014c.49.538.2,1.328-.164,2.328l-.021.057c.185.155.5.405,1.02.807.246.189.385.3.474.37.21.064.777.182.976.223.29.06.532.113.642.147h.03a2.58,2.58,0,0,1,1.142-1.228,2.015,2.015,0,0,1,.2-.074,1.161,1.161,0,0,1,.441-.6,1.077,1.077,0,0,1,.613-.188h.013c0-.747,1.645-2.638,2-2.829a8.755,8.755,0,0,1,.849-.365c.379-.15.8-.317,1.083-.464.037-.02.058-.117.092-.328a2.453,2.453,0,0,1,.141-.569c.293-.7,1.126-.812,1.735-.893l.107-.014c.5-.674,2.609-4.088,2.843-4.5,0,0,.656-1.208,1.629-1.208.739,0,1.279.68,1.756,1.28l.077.1a1.632,1.632,0,0,0,.8.331l.223.055c.341.091.92.421,2.7,2.2a1.654,1.654,0,0,0,.919.217,5.439,5.439,0,0,1,1.888.611c.11.052.2.094.263.122.17.017.908.047,4.059-.037l.418-.01a.91.91,0,0,1,.709.346,2.8,2.8,0,0,1,.278,1.831c-.1.433-.446.721-2.03,1.87-.16.116-.33.239-.47.342,0,.023.009.046.013.067a2.479,2.479,0,0,1,.073.948c-.134.673-1.676,1.632-2.018,1.837h0c-.141.121-.937,1.039-1.453,1.669.112.089.231.182.349.272l.047.04c4.395,4.129,7.135,6.692,7.332,6.857l0,0a14.738,14.738,0,0,1,1.754,2.477,3.166,3.166,0,0,1,.15,2.064c-.27.676-3.739,2.618-3.927,2.665-.276.069-4.189.8-5.381,1.018-5.815,1.112-5.917,1.112-6.008,1.112-.215,0-.215,0-1.954-.738-.665-.282-1.792-.761-2.351-.979-.34.3-.938.887-1.231,1.173a10.128,10.128,0,0,1-.972.9,12.168,12.168,0,0,0-.932,1.637,4.781,4.781,0,0,1-1.154,1.7c-.208.209-1.761,1.723-2.026,1.982l-3.642,5.1a27.187,27.187,0,0,0-1.732,2.423,2.553,2.553,0,0,0-.083.646,7.915,7.915,0,0,0,1.15,1.192c.074.037.156.073.237.107.4.171,1.448.626,1.13,1.764a4.673,4.673,0,0,0,.477,2.208c.125.149.34.378.587.641a8.3,8.3,0,0,1,1.957,2.506,16.321,16.321,0,0,1,.312,2.15l3.894-.378-2.422.881a.971.971,0,0,1,.129.363c.011.073.023.2.038.365.055.581.1.9.125,1.08a5.33,5.33,0,0,0,.746.165h0a13.146,13.146,0,0,0,1.8-.351,1.808,1.808,0,0,1,1.586.134.958.958,0,0,1,.384.764l0,.052a1.374,1.374,0,0,1-.753,1.484,3.128,3.128,0,0,0-.4.411c.2-.091.426-.195.569-.262a5.624,5.624,0,0,1,1.863-.689h0a20.056,20.056,0,0,1,4.058,1.271l.61.217.083-.067a14.155,14.155,0,0,1,2.132-1.575c1.47-.735,1.965-.851,2.392-.535l.675-.27-.405.6a.89.89,0,0,1,.061.587,5.158,5.158,0,0,1-.8,1.3c-.232.333-.759,1.09-.882,1.323-.022.191-.068,1-.054,4.354v.209c.1.373.844,2.052,1.318,3.042a5.44,5.44,0,0,1,1.732-.321.969.969,0,0,1,.771.332l.95-.128-.742.607a1.215,1.215,0,0,1-.655,1.113,40.266,40.266,0,0,0-3.038,2.771c0,.05,0,.11-.006.166,5.647-1.307,11.1-2.569,11.171-2.579.137-.023.183-.549.137-.618s-.664-.595-.755-.732.068-1.51,0-1.739-.984-.938-1.167-1.281.229-1.167.206-1.259-1.289-1.685-1.4-1.777a4.347,4.347,0,0,1-.107-1.266c0-.29.809-2.014,1.083-2.044a16.545,16.545,0,0,1,1.77.213s6.5.137,6.566.137,1.67-.984,2.014-1.167,6.2-.526,6.864-.549a41,41,0,0,1,4.1.755c.5.092,3.317-1.235,3.775-1.281s.32.137.435.549.938.229,1.281.32.961-.457.961-.457,7.71,2.082,8.031,2.2,2.288.3,2.471.343.778-.458,1.03-.6,5.651.755,6.314.87a2.4,2.4,0,0,0,1.647-.275c.321-.229,1.579-.71,1.693-1.03s-.526-1.053-.915-1.464a1.51,1.51,0,0,0-1.51-.32c-.526.137-1.6.32-1.578.183s1.51-1.121,1.578-1.258.061-2.112.061-2.112-.092-1.205-.061-1.785a10.836,10.836,0,0,1,1.327-2.715c.206-.3,1.3-.206,1.51-.206s.3-.183.435-.55.549-.388.847-.526,2.425-2.425,2.425-2.425S910.768,290,910.707,289.988Z" transform="translate(-243.469 -11.009)" fill="#636363"/><path d="M364.627,790.373a30.741,30.741,0,0,1-4.755-.5,22.57,22.57,0,0,0-5.6,1.046,14.085,14.085,0,0,1-5.543.207c-.621-.113-9.28-2.566-9.753-2.764a50.226,50.226,0,0,0-7.025-.538c-1.063.191-9.834,3.215-10.826,3.587a5.194,5.194,0,0,1-3.173.109c-1.1-.321-10.417-2.547-11.225-2.548-.916,0-7.916,1.164-8.769,1.388-.049.013-5.16,1.12-6.62.325a5.652,5.652,0,0,1-1.651-1.813,5.083,5.083,0,0,0-1.11-1.319c-.253-.092-1.375-.418-6.056-1.569l-.187-.046a2.412,2.412,0,0,1-.509.279c-1.533.649-4.953,2.477-6.368,4.246a46.887,46.887,0,0,1-5.544,6.133c-1.592,1.238-3.538,3.184-3.657,4.069s-2.182,1.946-2.889,2.182a21.34,21.34,0,0,0-4.806,4.187c-.413.825-2.89,4.482-3.479,5.632s-1.3,2.418-.384,1.681a18.845,18.845,0,0,0,3.214-4.216,10.186,10.186,0,0,1,1.71-3.037c.707-.678,2.035-1.445,2.123-.5s-.265,2.271.207,2.271.855-.177.383.8a47.71,47.71,0,0,1-3.892,5.1c-.767.884-2.182,2.359-2.624,2.771s-.973.472-.472,1.062-3.066,7.593-3.332,7.9a30.741,30.741,0,0,1-1.769,2.609c-.752.84-1.283.84-.664,1.548s1.4,2.448,1.047,3.214-2.064,2.595-2.889,2.654-2.064.354-1.828,1.415-.885,2.183-1.18,3.3-.118,2.889-.412,4.01a14.5,14.5,0,0,1-1.651,3.125c-.59,1.061-1,2.654-1.533,3.892s-.944,2.654-2.536,3.125-1.828.649-2.3.059-1.12-1.651-2.123-.059-1.415,2.772-2.241,3.951-2.123,2.005-1.887,3.244.781,2.123-.324,3.8-1.5,1.681-1.548,2.831-.884,3.715-1.238,5.484-.707,8.138-.84,8.846-1.415,7.474-1.371,8.094-.619,4.29-.619,4.865-.015,2.138-.015,2.138a8.43,8.43,0,0,0,.59,1.71c.147.029.5-.266.413-1.062a14.049,14.049,0,0,1,0-4.158,14.72,14.72,0,0,0,.767-3.273,50.743,50.743,0,0,1,1.887-5.838,14.749,14.749,0,0,0,.619-1.976L338.6,883.9l-.686-18.37-1.357-17.043-2.064-7.194a2.829,2.829,0,0,1,.206-1.091c.207-.354.944-2.417.944-2.417l-.029-2.241,2.654-2.27,6.723-4.482s5.16-3.42,5.6-3.6,3.8-.627,5.146-1.069a60.473,60.473,0,0,0,5.462-2.964c.863-.42,5.484-1.46,5.484-1.46l.025-29.66A11.6,11.6,0,0,1,364.627,790.373Z" transform="translate(0 -246.83)" fill="#636363"/><path d="M473.39,564.949c.412,1.367.565,1.793.616,1.921a2.879,2.879,0,0,0,.272.143,1.98,1.98,0,0,1,.78.557,5.252,5.252,0,0,1,.439,2.339c.215.631,2.537,5.378,3.153,6.563.991.3,4.137,1.205,4.5,1.252a33.675,33.675,0,0,1,5.083,1.58,1.731,1.731,0,0,0,.783.315c.32-.013,3.781-.5,4.918-.662.687-.1,1.2-.169,1.339-.186a2.635,2.635,0,0,1,1.517.208,3.547,3.547,0,0,0,1.392-.309c1.686-.673,2.821-.849,3.375-.526.071.041.152.094.238.151a2.227,2.227,0,0,0,.61.325c.712-.259,11.9-1.442,11.976-1.442.442,0,2.477.409,3.044,1.09.083.1.252.333.463.629a17.774,17.774,0,0,0,1.394,1.809l.535-.007.1,0c1.08-.024,1.439-.021,1.743.2.117.083.465.331.579,1.432.831,1.3,2.431,3.523,3.526,4.149a29.253,29.253,0,0,0,5.213,1.513c2.029.484,4.111.981,5.685,1.544a13.962,13.962,0,0,0,3.991.5c2.747.1,5.861.213,8.292,2.56a14.314,14.314,0,0,1,2.793,3.692,5.315,5.315,0,0,0,3.079,2.859c1.856.812,3.69,1.569,4.973,2.089l-.019-18.561-.009-18.792-7.241-10.019a6.427,6.427,0,0,0-1.069-1.187,1.692,1.692,0,0,1-1.094-1.729,2.872,2.872,0,0,0-.359-.9,29.71,29.71,0,0,0-3.545-.307c-.886,0-1.214-.735-1.431-1.222-.041-.094-.086-.194-.137-.3a1.858,1.858,0,0,0-.583-.587,2.427,2.427,0,0,1-.53-.489c-.406-.563-.081-1.208.206-1.777l.04-.079-.03-.019c-.754-.47-.982-3.008-.982-3.032a2.678,2.678,0,0,1,.063-.477,4.321,4.321,0,0,0,.084-.589,3.127,3.127,0,0,1-.2-1.326c0-.162-.012-.382-.025-.612a5.659,5.659,0,0,1,.011-1.392c.152-.661.8-.887,1.23-1.036.09-.031.17-.058.234-.087a1.173,1.173,0,0,1,1.063-.019,2.448,2.448,0,0,1,.025-.371c.094-.587.644-.936,1.3-1.3l.108-.061a1.757,1.757,0,0,0,.258-.215c-.156-.459-.584-1.545-.683-1.725s-.532-1.141-1.249-2.877l-.026-.075a4.965,4.965,0,0,1-.117-2.358c-.043-.043-.107-.111-.192-.2-1.687-1.769-2.306-2.329-2.522-2.505l-.306,0a15.622,15.622,0,0,0-1.682.031c-.135.193-.36.532-.51.756-.348.525-.571.857-.715,1.027-.464.549-1.206.37-1.924.059-.007.02-.014.04-.022.058a1.05,1.05,0,0,1-.63.651l-.109.4-.2-.346a.993.993,0,0,1-.883-.62c-.067-.134-.507-.816-.8-1.251,0,.019,0,.038,0,.057a1.428,1.428,0,0,1-.655,1.3.994.994,0,0,1-.72.137,1.19,1.19,0,0,1-.523.68,1.177,1.177,0,0,1-1.062.091,1.048,1.048,0,0,1-.568-1.283l-.174-.008a1.285,1.285,0,0,1-.805-.3,4.52,4.52,0,0,1-1.3.826,5.711,5.711,0,0,1-3.154-.09,4.561,4.561,0,0,1-1.42-2.368,2.464,2.464,0,0,1,.158-.864c-.227.117-.489.251-.793.4l-.073.037a1.4,1.4,0,0,1-1.372.019,1.148,1.148,0,0,1-.531-1.008c0-.2.028-.685.057-1.176.028-.472.056-.93.056-1.131,0,.015-.035-.119-.21-.543-.061.077-.109.134-.132.157a6.2,6.2,0,0,0-.549,1.8,29.618,29.618,0,0,1-1.526,2.868s-2.8,4.339-2.845,4.408a8.62,8.62,0,0,1-1.281,1.578,5.393,5.393,0,0,0-1.258.641l-2.425,2.952s-3.181,4.278-3.615,4.576-4.462,2.974-4.462,2.974-9.327,5.125-9.48,5.186-.747.153-.93.244a4.7,4.7,0,0,0-.732,1.022c-.244.366-.9.885-1.038,1.159s.061.336.046.458-.26.152-.549.213-1.77,1.342-2.166,1.586a1.514,1.514,0,0,0-.64.793,25.077,25.077,0,0,1-2.7,2.586c-.206.114-.366.709-.412.938a7.741,7.741,0,0,1-1.442,1.419c-.275.206-.092.435-.137.755s-.664.687-.893.915a2.671,2.671,0,0,0-.595.87c-.137.343-.732.777-.732.846s-3.768,2.151-3.814,2.166a3.35,3.35,0,0,1-1.3.427,6.29,6.29,0,0,0-1.785.457c-.031.015-.31.138-.748.331Z" transform="translate(-99.85 -140.527)" fill="#636363"/></g></svg>